<svg xmlns="http://www.w3.org/2000/svg" viewBox="0 0 20 20"><path fill="#FFF" d="M2.5 16h15a.5.5 0 00.5-.5V4.561l-7.668 6.813a.498.498 0 01-.664 0L2 4.571V15.5a.5.5 0 00.5.5z"/><path fill="#FFF" d="M17.126 4H2.863L10 10.332z"/><path opacity=".64" fill="#605E5C" d="M17.5 3h-15C1.673 3 1 3.673 1 4.5v11c0 .827.673 1.5 1.5 1.5h15c.827 0 1.5-.673 1.5-1.5v-11c0-.827-.673-1.5-1.5-1.5zm-.374 1L10 10.332 2.863 4h14.263zm.374 12h-15a.5.5 0 01-.5-.5V4.571l7.668 6.803a.5.5 0 00.664 0L18 4.561V15.5a.5.5 0 01-.5.5z"/></svg>